<svg width="420" height="59" viewBox="0 0 420 59" fill="none" xmlns="http://www.w3.org/2000/svg">
<g clip-path="url(#clip0)">
<path d="M28.33 16.42C31.3916 18.9803 33.4263 22.5596 34.06 26.5H22.54C22.2694 24.9832 21.464 23.6137 20.27 22.64C18.9984 21.6775 17.4338 21.183 15.84 21.24C14.7107 21.1608 13.5892 21.4792 12.67 22.14C12.3056 22.4552 12.0187 22.8501 11.8314 23.294C11.6442 23.738 11.5615 24.219 11.59 24.7C11.5958 25.3155 11.7909 25.9143 12.1487 26.4152C12.5064 26.9161 13.0096 27.2948 13.59 27.5C15.5963 28.3397 17.6841 28.9697 19.82 29.38C22.3832 29.9515 24.9082 30.6829 27.38 31.57C29.3647 32.33 31.1232 33.5826 32.49 35.21C34.0121 37.1342 34.7738 39.5508 34.63 42C34.6668 44.186 34.0123 46.3278 32.76 48.12C31.3853 49.9876 29.5145 51.4323 27.36 52.29C24.7033 53.3489 21.8589 53.8558 19 53.78C13.5667 53.78 9.23333 52.58 6 50.18C4.35735 48.9584 2.97895 47.417 1.94779 45.6485C0.91664 43.8801 0.254074 41.9213 0 39.89H11.88C11.9262 40.6784 12.1476 41.4465 12.5282 42.1385C12.9088 42.8305 13.4389 43.4288 14.08 43.89C15.5388 44.8409 17.2608 45.3064 19 45.22C20.1445 45.2944 21.2754 44.9377 22.17 44.22C22.5262 43.9003 22.8076 43.5061 22.9942 43.0654C23.1809 42.6247 23.2682 42.1483 23.25 41.67C23.2741 41.0232 23.0939 40.3853 22.7349 39.8468C22.3758 39.3082 21.8563 38.8965 21.25 38.67C19.164 37.8345 17.0046 37.195 14.8 36.76C12.3071 36.2762 9.85372 35.6077 7.46 34.76C5.52206 34.0389 3.80082 32.8341 2.46 31.26C1.00691 29.3936 0.285065 27.0609 0.43 24.7C0.392143 23.0302 0.743869 21.3746 1.45728 19.8645C2.1707 18.3543 3.22618 17.0312 4.54 16C7.26667 13.7733 11.13 12.6567 16.13 12.65C21.13 12.6433 25.1967 13.9 28.33 16.42Z" fill="white"/>
<path d="M82.37 13.1V53.28H70V46C68.8659 48.3313 67.076 50.281 64.85 51.61C62.4488 53.0393 59.6937 53.7636 56.9 53.7C52.2933 53.7 48.6267 52.1633 45.9 49.09C43.1733 46.0167 41.8167 41.7967 41.83 36.43V13.1H54.07V34.92C53.924 37.2396 54.6881 39.5248 56.2 41.29C56.9371 42.0535 57.8286 42.6508 58.815 43.0423C59.8014 43.4338 60.86 43.6102 61.92 43.56C63.0174 43.6165 64.1139 43.4329 65.1329 43.0218C66.152 42.6107 67.069 41.9822 67.82 41.18C69.26 39.6 70 37.34 70 34.42V13.1H82.37Z" fill="white"/>
<path d="M126.39 15.08C129.084 16.8292 131.232 19.2997 132.59 22.21C134.174 25.6559 134.947 29.4188 134.85 33.21C134.945 37.001 134.172 40.7636 132.59 44.21C131.241 47.1343 129.091 49.6168 126.39 51.37C123.729 53.0401 120.641 53.9017 117.5 53.85C114.715 53.928 111.967 53.2062 109.58 51.77C107.404 50.4041 105.717 48.3842 104.76 46V53.27H92.45V0H104.76V20.38C105.728 18.0236 107.415 16.0325 109.58 14.69C111.966 13.2503 114.714 12.525 117.5 12.6C120.64 12.5529 123.727 13.4141 126.39 15.08V15.08ZM107.17 26C105.436 27.9689 104.545 30.5404 104.69 33.16C104.553 35.7694 105.444 38.3286 107.17 40.29C108.001 41.1321 108.991 41.8021 110.081 42.2615C111.172 42.7208 112.342 42.9606 113.525 42.9671C114.709 42.9736 115.882 42.7467 116.977 42.2994C118.073 41.852 119.069 41.193 119.91 40.36C121.617 38.3631 122.485 35.7826 122.33 33.16C122.485 30.5374 121.617 27.9569 119.91 25.96C119.096 25.0966 118.106 24.4184 117.007 23.9715C115.908 23.5246 114.725 23.3195 113.54 23.37C112.353 23.3324 111.171 23.5474 110.073 24.0008C108.974 24.4542 107.985 25.1356 107.17 26V26Z" fill="white"/>
<path d="M168.51 16.42C171.572 18.9803 173.606 22.5596 174.24 26.5H162.72C162.454 24.9816 161.647 23.6107 160.45 22.64C159.178 21.6775 157.614 21.183 156.02 21.24C154.891 21.1608 153.769 21.4792 152.85 22.14C152.486 22.4552 152.199 22.8501 152.011 23.294C151.824 23.738 151.742 24.219 151.77 24.7C151.776 25.3155 151.971 25.9143 152.329 26.4152C152.686 26.9161 153.19 27.2948 153.77 27.5C155.776 28.3397 157.864 28.9697 160 29.38C162.563 29.9515 165.088 30.6829 167.56 31.57C169.545 32.33 171.303 33.5826 172.67 35.21C174.192 37.1342 174.954 39.5508 174.81 42C174.847 44.186 174.192 46.3278 172.94 48.12C171.565 49.9876 169.695 51.4323 167.54 52.29C164.888 53.3563 162.047 53.8701 159.19 53.8C153.77 53.8 149.437 52.6 146.19 50.2C144.547 48.9784 143.169 47.437 142.138 45.6685C141.107 43.9001 140.444 41.9413 140.19 39.91H152.07C152.118 40.6979 152.341 41.4653 152.721 42.1569C153.101 42.8486 153.63 43.4473 154.27 43.91C155.727 44.877 157.453 45.3567 159.2 45.28C160.344 45.3544 161.475 44.9977 162.37 44.28C162.726 43.9603 163.008 43.5661 163.194 43.1254C163.381 42.6847 163.468 42.2083 163.45 41.73C163.474 41.0832 163.294 40.4453 162.935 39.9068C162.576 39.3682 162.056 38.9565 161.45 38.73C159.365 37.8842 157.206 37.2348 155 36.79C152.507 36.3062 150.054 35.6377 147.66 34.79C145.722 34.0689 144.001 32.8641 142.66 31.29C141.181 29.4268 140.437 27.0853 140.57 24.71C140.535 23.0352 140.892 21.3755 141.613 19.8633C142.334 18.351 143.397 17.0281 144.72 16C147.447 13.7733 151.31 12.6567 156.31 12.65C161.31 12.6433 165.377 13.9 168.51 16.42Z" fill="white"/>
<path d="M205.41 42.7V53.28H199.87C195.17 53.28 191.5 52.12 188.87 49.79C186.24 47.46 185 43.61 185 38.23V23.47H179.61V13.1H185V3.24H197.32V13.1H205.38V23.47H197.32V38.47C197.26 39.0604 197.318 39.6568 197.489 40.2249C197.661 40.7929 197.943 41.3215 198.32 41.78C199.256 42.4958 200.427 42.8316 201.6 42.72L205.41 42.7Z" fill="white"/>
<path d="M232.88 14.83C235.259 13.4014 237.985 12.6542 240.76 12.67V25.85H237.24C233.97 25.85 231.44 26.54 229.64 27.94C227.84 29.34 226.94 31.68 226.94 34.99V53.28H214.63V13.1H226.94V20.66C228.426 18.27 230.463 16.2708 232.88 14.83V14.83Z" fill="white"/>
<path d="M269.28 14.69C271.452 16.0437 273.158 18.0291 274.17 20.38V13.1H286.41V53.28H274.17V46C273.156 48.3492 271.45 50.3339 269.28 51.69C266.893 53.1262 264.145 53.848 261.36 53.77C258.216 53.8219 255.124 52.9604 252.46 51.29C249.76 49.5374 247.614 47.0545 246.27 44.13C244.684 40.6844 243.908 36.9218 244 33.13C243.906 29.338 244.683 25.575 246.27 22.13C247.625 19.2204 249.769 16.7498 252.46 15C255.126 13.3344 258.217 12.4733 261.36 12.52C264.153 12.469 266.903 13.2223 269.28 14.69V14.69ZM258.94 26C257.24 28.0004 256.377 30.5793 256.53 33.2C256.377 35.8207 257.24 38.3996 258.94 40.4C260.644 42.0731 262.941 43.0046 265.329 42.9915C267.718 42.9784 270.004 42.0217 271.69 40.33C273.411 38.3654 274.3 35.8085 274.17 33.2C274.325 30.5668 273.434 27.979 271.69 26C270.875 25.1356 269.886 24.4542 268.788 24.0008C267.689 23.5474 266.507 23.3324 265.32 23.37C264.13 23.3257 262.945 23.5377 261.844 23.9914C260.743 24.4452 259.753 25.1302 258.94 26V26Z" fill="white"/>
<path d="M318.81 42.7V53.28H313.27C308.563 53.28 304.897 52.1167 302.27 49.79C299.643 47.4633 298.333 43.61 298.34 38.23V23.47H293V13.1H298.4V3.24H310.72V13.1H318.78V23.47H310.72V38.47C310.66 39.0604 310.718 39.6568 310.889 40.2249C311.061 40.7929 311.343 41.3215 311.72 41.78C312.653 42.4943 313.82 42.83 314.99 42.72L318.81 42.7Z" fill="white"/>
<path d="M364.24 35.42H336.38C336.52 38.4533 337.287 40.6267 338.68 41.94C339.393 42.6074 340.231 43.1275 341.146 43.4707C342.06 43.8139 343.034 43.9734 344.01 43.94C345.633 43.9998 347.231 43.5178 348.55 42.57C349.729 41.69 350.567 40.4283 350.92 39H363.92C363.419 41.7807 362.234 44.3927 360.47 46.6C358.655 48.8582 356.337 50.6597 353.7 51.86C350.587 53.2052 347.216 53.8505 343.826 53.7503C340.435 53.6501 337.109 52.8068 334.08 51.28C331.079 49.6349 328.62 47.1547 327 44.14C325.2 40.7588 324.304 36.9695 324.4 33.14C324.304 29.3153 325.185 25.5294 326.96 22.14C328.597 19.1132 331.086 16.6338 334.12 15.01C337.384 13.3935 340.977 12.5525 344.62 12.5525C348.263 12.5525 351.856 13.3935 355.12 15.01C358.066 16.5782 360.497 18.9637 362.12 21.88C363.814 25.0052 364.668 28.5161 364.6 32.07C364.591 33.1958 364.471 34.318 364.24 35.42V35.42ZM350 24.3C348.513 22.9618 346.569 22.2458 344.57 22.3C342.509 22.2172 340.495 22.9337 338.95 24.3C337.363 25.8564 336.457 27.9776 336.43 30.2H352.13C352.19 27.6 351.49 25.62 350 24.3Z" fill="white"/>
<path d="M419.75 46.09V58.09H375.19V46.09H419.75Z" fill="#18FFB2"/>
</g>
<defs>
<clipPath id="clip0">
<rect width="419.75" height="58.11" fill="white"/>
</clipPath>
</defs>
</svg>
